<svg width="20" height="20" viewBox="0 0 20 20" fill="none" xmlns="http://www.w3.org/2000/svg">
<g clip-path="url(#clip0_41_461)">
<mask id="mask0_41_461" style="mask-type:luminance" maskUnits="userSpaceOnUse" x="0" y="0" width="20" height="20">
<path d="M20 0H0V20H20V0Z" fill="white"/>
</mask>
<g mask="url(#mask0_41_461)">
<path d="M10 1.66667C7.81669 1.66667 6.04169 3.44167 6.04169 5.62501C6.04169 7.76667 7.71669 9.50001 9.90002 9.57501C9.96669 9.56667 10.0334 9.56667 10.0834 9.57501C10.1 9.57501 10.1084 9.57501 10.125 9.57501C10.1334 9.57501 10.1334 9.57501 10.1417 9.57501C12.275 9.50001 13.95 7.76667 13.9584 5.62501C13.9584 3.44167 12.1834 1.66667 10 1.66667Z" fill="#757575"/>
<path d="M14.2333 11.7916C11.9083 10.2416 8.11663 10.2416 5.77497 11.7916C4.71663 12.4999 4.1333 13.4583 4.1333 14.4833C4.1333 15.5083 4.71663 16.4583 5.76663 17.1583C6.9333 17.9416 8.46667 18.3333 10 18.3333C11.5333 18.3333 13.0667 17.9416 14.2333 17.1583C15.2833 16.4499 15.8667 15.4999 15.8667 14.4666C15.8583 13.4416 15.2833 12.4916 14.2333 11.7916Z" fill="#757575"/>
</g>
</g>
<defs>
<clipPath id="clip0_41_461">
<rect width="20" height="20" fill="white"/>
</clipPath>
</defs>
</svg>
